<?xml version="1.0" encoding="utf-8"?>
<!-- Generator: Adobe Illustrator 16.0.0, SVG Export Plug-In . SVG Version: 6.00 Build 0)  -->
<!DOCTYPE svg PUBLIC "-//W3C//DTD SVG 1.1//EN" "http://www.w3.org/Graphics/SVG/1.1/DTD/svg11.dtd">
<svg version="1.1" id="Layer_1" xmlns="http://www.w3.org/2000/svg" xmlns:xlink="http://www.w3.org/1999/xlink" x="0px" y="0px"
	 width="113.48px" height="16.513px" viewBox="31.145 20.375 113.48 16.513" enable-background="new 31.145 20.375 113.48 16.513"
	 xml:space="preserve">
<filter  height="200%" width="200%" id="filter-1" filterUnits="objectBoundingBox" y="-50%" x="-50%">
	<feOffset  result="shadowOffsetOuter1" in="SourceAlpha" dy="2" dx="0"></feOffset>
	<feGaussianBlur  stdDeviation="18" result="shadowBlurOuter1" in="shadowOffsetOuter1"></feGaussianBlur>
	
		<feColorMatrix  type="matrix" values="0 0 0 0 0   0 0 0 0 0   0 0 0 0 0  0 0 0 0.06 0" result="shadowMatrixOuter1" in="shadowBlurOuter1">
		</feColorMatrix>
	<feMerge>
		<feMergeNode  in="shadowMatrixOuter1"></feMergeNode>
		<feMergeNode  in="SourceGraphic"></feMergeNode>
	</feMerge>
</filter>
<title>VECTARY Logo</title>
<desc>Created with Sketch.</desc>
<g id="_x30_1_x5F_Landing-Page">
	<g id="Header_x5F_scrolled_x5F_white_x5F_1_x5F__x40_2x" transform="translate(-59.000000, 0.000000)">
		<g id="Group-19" filter="url(#filter-1)">
			<g id="logo-vectary-copy-4_1_" transform="translate(90.000000, 21.000000)">
				<path id="VECTARY-Logo_1_" fill="#FFFFFF" d="M107.191,15.888h-1.859V9.961c0-0.458-0.108-0.833-0.352-1.214
					c-1.751-2.78-3.502-5.558-5.256-8.335l-0.182-0.287h2.396l0.053,0.085l4.27,6.768l4.305-6.825l0.117-0.028h2.297l-5.441,8.621
					c-0.239,0.385-0.348,0.758-0.348,1.216V15.888z M96.924,15.882h-2.186l-0.047-0.114c-0.578-1.386-1.153-2.773-1.728-4.159
					l-0.534-1.292c-0.346-0.832-1.14-1.367-2.025-1.367h-5.451v6.932h-1.858V0.119H91.4c1.033,0,2.047,0.055,3.084,0.715
					c0.9,0.58,1.529,1.486,1.819,2.623c0.271,1.054,0.215,2.229-0.155,3.226c-0.207,0.561-0.476,1.003-0.848,1.388
					c-0.396,0.41-0.842,0.648-1.272,0.834c0.532,1.281,1.05,2.531,1.567,3.782L96.924,15.882z M84.953,6.895H91.4h0.005
					c0.219,0,0.436,0,0.655-0.007c0.125-0.004,0.25-0.008,0.37-0.021c0.11-0.009,0.219-0.019,0.325-0.037
					c0.095-0.015,0.188-0.034,0.281-0.055c0.072-0.02,0.147-0.042,0.224-0.071c0.064-0.023,0.13-0.054,0.199-0.086
					c0.104-0.056,0.208-0.126,0.297-0.204c0.096-0.083,0.18-0.181,0.257-0.3c0.088-0.125,0.162-0.268,0.225-0.424
					c0.069-0.182,0.121-0.365,0.152-0.543c0.036-0.195,0.054-0.4,0.054-0.611c0-0.21-0.018-0.417-0.054-0.616
					c-0.033-0.186-0.086-0.369-0.152-0.542c-0.062-0.156-0.137-0.298-0.223-0.419c-0.079-0.121-0.163-0.219-0.256-0.299
					c-0.094-0.083-0.195-0.153-0.307-0.21c-0.127-0.064-0.266-0.115-0.422-0.153c-0.174-0.044-0.363-0.074-0.598-0.093
					c-0.127-0.011-0.25-0.017-0.371-0.021c-0.148-0.005-0.297-0.006-0.441-0.006l-6.668,0.001V6.895z M80.429,15.882h-2.185
					l-2.625-6.36c-1.011-2.45-2.021-4.898-3.033-7.347h-0.258c-0.08,0.001-0.169,0.005-0.256,0.009
					c-0.064,0.003-0.132,0.009-0.193,0.019c-0.061,0.008-0.109,0.014-0.152,0.027c-0.064,0.012-0.105,0.022-0.145,0.036
					c-0.034,0.012-0.07,0.025-0.104,0.041c-0.039,0.016-0.068,0.034-0.098,0.051c-0.02,0.012-0.047,0.029-0.066,0.047
					c-0.083,0.065-0.145,0.126-0.2,0.193c-0.073,0.086-0.144,0.188-0.214,0.306c-0.094,0.161-0.172,0.323-0.229,0.447
					c-0.064,0.137-0.121,0.271-0.178,0.406l-0.082,0.193c-0.819,1.975-1.637,3.952-2.453,5.93l-2.482,6h-2.185l5.269-12.73
					c0.33-0.801,0.707-1.709,1.473-2.332c0.799-0.65,1.621-0.702,2.613-0.702h1.275l0.047,0.114L80.429,15.882z M57.875,15.882
					h-1.859V2.175h-5.467V0.119h12.793v2.056h-5.467V15.882z M47.844,15.882H42.08c-2.323,0-4.091-0.665-5.257-1.975
					c-1.164-1.308-1.752-3.293-1.75-5.895V7.947c0.011-5.194,2.376-7.828,7.033-7.828h5.76v2.056h-5.76
					c-0.252,0-0.481,0.008-0.698,0.024c-0.199,0.014-0.405,0.036-0.627,0.072c-0.196,0.03-0.38,0.068-0.555,0.114
					c-0.187,0.047-0.345,0.097-0.487,0.152c-0.162,0.058-0.3,0.119-0.434,0.186c-0.128,0.065-0.252,0.139-0.365,0.216
					c-0.121,0.081-0.226,0.162-0.323,0.247c-0.103,0.084-0.195,0.175-0.288,0.282c-0.105,0.117-0.192,0.224-0.265,0.331
					c-0.1,0.147-0.172,0.264-0.233,0.377C37.68,4.456,37.552,4.771,37.44,5.14c-0.109,0.358-0.196,0.769-0.265,1.256
					c-0.032,0.286-0.053,0.521-0.065,0.736c-0.018,0.256-0.025,0.523-0.025,0.815v0.065c0,0.272,0.007,0.552,0.021,0.824
					c0.02,0.261,0.038,0.504,0.067,0.746c0.027,0.212,0.064,0.438,0.112,0.669c0.044,0.204,0.092,0.403,0.147,0.595
					c0.112,0.367,0.24,0.686,0.389,0.969c0.062,0.112,0.142,0.25,0.231,0.377c0.083,0.127,0.178,0.239,0.261,0.334
					c0.087,0.098,0.183,0.194,0.288,0.283c0.103,0.091,0.211,0.174,0.322,0.247c0.114,0.077,0.236,0.149,0.37,0.218
					c0.137,0.071,0.279,0.133,0.419,0.184c0.311,0.118,0.652,0.207,1.045,0.272c0.219,0.035,0.428,0.058,0.624,0.071
					c0.217,0.019,0.453,0.025,0.698,0.025h5.769l-0.001,0.187c-0.004,0.561-0.004,1.12-0.004,1.682V15.882z M32.339,15.882H19.951
					V0.119h12.388v2.056H21.963v4.874h8.545v1.902h-8.545v4.875h10.376V15.882z M7.931,15.882H6.655l-0.046-0.114
					c-1.53-3.698-3.055-7.393-4.582-11.09L0.145,0.119h2.184l0.046,0.114l5.616,13.593h0.117c0.13,0,0.26,0,0.384-0.011
					c0.074-0.003,0.144-0.011,0.208-0.018c0.057-0.007,0.112-0.018,0.173-0.029c0.037-0.009,0.082-0.022,0.123-0.034l0.197-0.091
					c0.021-0.013,0.042-0.027,0.065-0.045c0.084-0.065,0.146-0.127,0.201-0.196c0.074-0.088,0.146-0.19,0.213-0.305
					c0.087-0.148,0.163-0.293,0.232-0.45c0.091-0.196,0.174-0.397,0.254-0.595l2.461-5.945c0.809-1.958,1.619-3.916,2.43-5.874
					l0.046-0.114h2.189l-0.108,0.259c-1.724,4.158-3.444,8.313-5.162,12.472c-0.329,0.798-0.704,1.704-1.473,2.33
					C9.741,15.832,8.955,15.882,7.931,15.882z"/>
			</g>
		</g>
	</g>
</g>
</svg>
